<svg width="44" height="51" viewBox="0 0 44 51" fill="none" xmlns="http://www.w3.org/2000/svg">
<path d="M43.1302 45.1284L29.186 38.2495L43.1311 31.3706C43.907 30.9771 44.2223 30.0199 43.8334 29.233L42.4279 26.3812C42.04 25.5943 41.0962 25.2746 40.3193 25.668L21.9998 34.7044L3.68024 25.668C2.90437 25.2746 1.96055 25.5933 1.57162 26.3812L0.166206 29.233C-0.221732 30.0199 0.0925472 30.9771 0.868424 31.3706L14.8136 38.2495L0.869407 45.1284C0.0935293 45.5219 -0.221732 46.4791 0.167189 47.267L1.57261 50.1188C1.96055 50.9057 2.90437 51.2254 3.68122 50.831L21.9998 41.7946L40.3193 50.831C41.0952 51.2244 42.039 50.9057 42.4279 50.1188L43.8334 47.267C44.2213 46.4791 43.906 45.5219 43.1302 45.1284ZM14.7321 23.635L14.1939 26.2119C13.9316 27.4689 14.7262 28.6871 15.8095 28.6871H28.1921C29.2753 28.6871 30.0699 27.4689 29.8077 26.2119L29.2675 23.635C33.3708 21.4028 36.1424 17.3846 36.1424 12.7498C36.1424 5.70854 29.8106 0 21.9998 0C14.189 0 7.85721 5.70854 7.85721 12.7498C7.85721 17.3846 10.6288 21.4028 14.7321 23.635ZM27.4997 11.1561C29.2331 11.1561 30.6425 12.5855 30.6425 14.3436C30.6425 16.1016 29.2331 17.531 27.4997 17.531C25.7662 17.531 24.3569 16.1016 24.3569 14.3436C24.3569 12.5855 25.7662 11.1561 27.4997 11.1561ZM16.4999 11.1561C18.2333 11.1561 19.6427 12.5855 19.6427 14.3436C19.6427 16.1016 18.2333 17.531 16.4999 17.531C14.7664 17.531 13.3571 16.1016 13.3571 14.3436C13.3571 12.5855 14.7664 11.1561 16.4999 11.1561Z" fill="white"/>
</svg>
