<svg width="40" height="35" viewBox="0 0 40 35" fill="none" xmlns="http://www.w3.org/2000/svg">
<path d="M2.5 32.5C2.5 33.8828 3.61719 35 5 35H35C36.3828 35 37.5 33.8828 37.5 32.5V10H2.5V32.5ZM15 15.9375C15 15.4219 15.4219 15 15.9375 15H24.0625C24.5781 15 25 15.4219 25 15.9375V16.5625C25 17.0781 24.5781 17.5 24.0625 17.5H15.9375C15.4219 17.5 15 17.0781 15 16.5625V15.9375ZM37.5 0H2.5C1.11719 0 0 1.11719 0 2.5V6.25C0 6.9375 0.5625 7.5 1.25 7.5H38.75C39.4375 7.5 40 6.9375 40 6.25V2.5C40 1.11719 38.8828 0 37.5 0Z" fill="white"/>
</svg>
