<svg width="29" height="39" viewBox="0 0 29 39" fill="none" xmlns="http://www.w3.org/2000/svg">
<path d="M28.4714 7.99805L21.0779 0.533203C20.738 0.19043 20.2773 0 19.794 0H19.3333V9.75H29V9.28535C29 8.80547 28.8112 8.34082 28.4714 7.99805ZM16.9167 10.3594V0H1.8125C0.808073 0 0 0.815039 0 1.82812V37.1719C0 38.185 0.808073 39 1.8125 39H27.1875C28.1919 39 29 38.185 29 37.1719V12.1875H18.7292C17.7323 12.1875 16.9167 11.3648 16.9167 10.3594ZM4.83333 5.48438C4.83333 5.1477 5.1037 4.875 5.4375 4.875H11.4792C11.813 4.875 12.0833 5.1477 12.0833 5.48438V6.70312C12.0833 7.0398 11.813 7.3125 11.4792 7.3125H5.4375C5.1037 7.3125 4.83333 7.0398 4.83333 6.70312V5.48438ZM4.83333 11.5781V10.3594C4.83333 10.0227 5.1037 9.75 5.4375 9.75H11.4792C11.813 9.75 12.0833 10.0227 12.0833 10.3594V11.5781C12.0833 11.9148 11.813 12.1875 11.4792 12.1875H5.4375C5.1037 12.1875 4.83333 11.9148 4.83333 11.5781ZM15.7083 31.6784V33.5156C15.7083 33.8523 15.438 34.125 15.1042 34.125H13.8958C13.562 34.125 13.2917 33.8523 13.2917 33.5156V31.6654C12.439 31.6212 11.6098 31.3211 10.9226 30.8009C10.628 30.5777 10.6129 30.1328 10.8795 29.8761L11.7669 29.0222C11.9761 28.8212 12.2872 28.812 12.5319 28.9666C12.8242 29.151 13.1557 29.25 13.5001 29.25H15.623C16.1139 29.25 16.5141 28.7991 16.5141 28.2453C16.5141 27.7921 16.2415 27.3929 15.8518 27.2756L12.4534 26.2473C11.0495 25.8223 10.0684 24.4634 10.0684 22.9422C10.0684 21.0745 11.5071 19.5571 13.2909 19.5091V17.6719C13.2909 17.3352 13.5613 17.0625 13.8951 17.0625H15.1034C15.4372 17.0625 15.7076 17.3352 15.7076 17.6719V19.5221C16.5602 19.5663 17.3894 19.8656 18.0767 20.3866C18.3712 20.6098 18.3863 21.0547 18.1197 21.3114L17.2323 22.1653C17.0232 22.3663 16.712 22.3755 16.4673 22.2209C16.1751 22.0358 15.8435 21.9375 15.4991 21.9375H13.3763C12.8854 21.9375 12.4851 22.3884 12.4851 22.9422C12.4851 23.3954 12.7577 23.7946 13.1474 23.9119L16.5459 24.9402C17.9498 25.3652 18.9308 26.7241 18.9308 28.2453C18.9308 30.1138 17.4921 31.6304 15.7083 31.6784Z" fill="white"/>
</svg>
