<svg width="44" height="30" viewBox="0 0 44 30" fill="none" xmlns="http://www.w3.org/2000/svg">
<path d="M42.1667 0H6.72222C5.70969 0 4.88889 0.839453 4.88889 1.875V2.5H1.83333C0.820799 2.5 0 3.33945 0 4.375V25.625C0 28.0413 1.91522 30 4.27778 30H40.3333C42.3584 30 44 28.3211 44 26.25V1.875C44 0.839453 43.1792 0 42.1667 0ZM4.27778 26.25C4.1157 26.25 3.96026 26.1842 3.84566 26.0669C3.73105 25.9497 3.66667 25.7908 3.66667 25.625V6.25H4.88889V25.625C4.88889 25.7908 4.8245 25.9497 4.7099 26.0669C4.59529 26.1842 4.43985 26.25 4.27778 26.25ZM22.3056 25H10.6944C10.1882 25 9.77778 24.5802 9.77778 24.0625V23.4375C9.77778 22.9198 10.1882 22.5 10.6944 22.5H22.3056C22.8118 22.5 23.2222 22.9198 23.2222 23.4375V24.0625C23.2222 24.5802 22.8118 25 22.3056 25ZM38.1944 25H26.5833C26.0771 25 25.6667 24.5802 25.6667 24.0625V23.4375C25.6667 22.9198 26.0771 22.5 26.5833 22.5H38.1944C38.7007 22.5 39.1111 22.9198 39.1111 23.4375V24.0625C39.1111 24.5802 38.7007 25 38.1944 25ZM22.3056 17.5H10.6944C10.1882 17.5 9.77778 17.0802 9.77778 16.5625V15.9375C9.77778 15.4198 10.1882 15 10.6944 15H22.3056C22.8118 15 23.2222 15.4198 23.2222 15.9375V16.5625C23.2222 17.0802 22.8118 17.5 22.3056 17.5ZM38.1944 17.5H26.5833C26.0771 17.5 25.6667 17.0802 25.6667 16.5625V15.9375C25.6667 15.4198 26.0771 15 26.5833 15H38.1944C38.7007 15 39.1111 15.4198 39.1111 15.9375V16.5625C39.1111 17.0802 38.7007 17.5 38.1944 17.5ZM38.1944 10H10.6944C10.1882 10 9.77778 9.58023 9.77778 9.0625V5.9375C9.77778 5.41977 10.1882 5 10.6944 5H38.1944C38.7007 5 39.1111 5.41977 39.1111 5.9375V9.0625C39.1111 9.58023 38.7007 10 38.1944 10Z" fill="white"/>
</svg>
