<svg width="40" height="35" viewBox="0 0 40 35" fill="none" xmlns="http://www.w3.org/2000/svg">
<path d="M19.9998 7.8586L4.82417 21.0349C4.71167 21.1347 4.56792 21.1812 4.44431 21.2639V33.9063C4.44431 34.5105 4.94153 35 5.55542 35H15.9186L13.3332 30.0228L20.563 25.6478L16.3853 17.4979L26.6665 26.8481L19.4366 31.2231L22.2089 35H34.4442C35.0581 35 35.5553 34.5105 35.5553 33.9063V21.2666C35.4373 21.1873 35.297 21.1422 35.1901 21.0479L19.9998 7.8586ZM39.631 16.152L35.5553 12.6089V3.28125C35.5553 2.67695 35.0581 2.1875 34.4442 2.1875H29.9998C29.3859 2.1875 28.8887 2.67695 28.8887 3.28125V6.81475L21.8575 0.704787C21.3276 0.235841 20.6637 0.000685088 19.9998 1.49474e-06C19.3359 -0.000682099 18.6734 0.233107 18.1457 0.702052L0.368628 16.152C-0.0876213 16.556 -0.125816 17.2471 0.2846 17.6969L1.77071 19.3252C2.18043 19.7743 2.8832 19.8119 3.34015 19.4079L19.2651 5.58018C19.6852 5.21582 20.3151 5.21582 20.7352 5.58018L36.6602 19.4072C37.1164 19.8105 37.8192 19.7736 38.2296 19.3245L39.7157 17.6962C40.1255 17.2471 40.088 16.5553 39.631 16.152Z" fill="white"/>
</svg>
