<svg width="411" height="120" viewBox="0 0 411 120" fill="none" xmlns="http://www.w3.org/2000/svg">
<path d="M96.1172 37.4922C94.4141 37.4922 92.8203 37.3203 91.3359 36.9766C89.8516 36.6328 88.2734 36.1016 86.6016 35.3828L86.5547 29.3594H90.0469L90.9141 32.9922C92.5703 33.6797 94.3047 34.0234 96.1172 34.0234C97.9922 34.0234 99.3359 33.6641 100.148 32.9453C100.961 32.2266 101.367 31.3359 101.367 30.2734C101.367 29.2734 100.953 28.4297 100.125 27.7422C99.3125 27.0391 97.8281 26.4453 95.6719 25.9609C92.6094 25.2578 90.3516 24.3203 88.8984 23.1484C87.4609 21.9609 86.7422 20.3828 86.7422 18.4141C86.7422 17.0391 87.1406 15.8125 87.9375 14.7344C88.7344 13.6406 89.8438 12.7734 91.2656 12.1328C92.6875 11.4922 94.3438 11.1719 96.2344 11.1719C98.1562 11.1719 99.7969 11.3906 101.156 11.8281C102.531 12.2656 103.727 12.8516 104.742 13.5859L104.977 19.375H101.508L100.758 16C100.211 15.5938 99.5625 15.2812 98.8125 15.0625C98.0625 14.8438 97.2031 14.7344 96.2344 14.7344C94.7969 14.7344 93.625 15.0703 92.7188 15.7422C91.8281 16.4141 91.3828 17.2578 91.3828 18.2734C91.3828 18.8672 91.5078 19.3828 91.7578 19.8203C92.0234 20.2578 92.5234 20.6562 93.2578 21.0156C93.9922 21.3594 95.0703 21.7031 96.4922 22.0469C100.023 22.875 102.484 23.9297 103.875 25.2109C105.281 26.4922 105.984 28.0703 105.984 29.9453C105.984 32.0859 105.188 33.8828 103.594 35.3359C102.016 36.7734 99.5234 37.4922 96.1172 37.4922Z" fill="white"/>
<path d="M109.641 37V34.0469L113.461 33.3906V15.2734L109.641 14.6172V11.6406H118.078V33.3906L121.898 34.0469V37H109.641ZM113.227 5.38281V0.4375H118.078V5.38281H113.227Z" fill="white"/>
<path d="M135.352 37.4922C133.648 37.4922 132.055 37.3203 130.57 36.9766C129.086 36.6328 127.508 36.1016 125.836 35.3828L125.789 29.3594H129.281L130.148 32.9922C131.805 33.6797 133.539 34.0234 135.352 34.0234C137.227 34.0234 138.57 33.6641 139.383 32.9453C140.195 32.2266 140.602 31.3359 140.602 30.2734C140.602 29.2734 140.188 28.4297 139.359 27.7422C138.547 27.0391 137.062 26.4453 134.906 25.9609C131.844 25.2578 129.586 24.3203 128.133 23.1484C126.695 21.9609 125.977 20.3828 125.977 18.4141C125.977 17.0391 126.375 15.8125 127.172 14.7344C127.969 13.6406 129.078 12.7734 130.5 12.1328C131.922 11.4922 133.578 11.1719 135.469 11.1719C137.391 11.1719 139.031 11.3906 140.391 11.8281C141.766 12.2656 142.961 12.8516 143.977 13.5859L144.211 19.375H140.742L139.992 16C139.445 15.5938 138.797 15.2812 138.047 15.0625C137.297 14.8438 136.438 14.7344 135.469 14.7344C134.031 14.7344 132.859 15.0703 131.953 15.7422C131.062 16.4141 130.617 17.2578 130.617 18.2734C130.617 18.8672 130.742 19.3828 130.992 19.8203C131.258 20.2578 131.758 20.6562 132.492 21.0156C133.227 21.3594 134.305 21.7031 135.727 22.0469C139.258 22.875 141.719 23.9297 143.109 25.2109C144.516 26.4922 145.219 28.0703 145.219 29.9453C145.219 32.0859 144.422 33.8828 142.828 35.3359C141.25 36.7734 138.758 37.4922 135.352 37.4922Z" fill="white"/>
<path d="M157.992 37.3984C156.117 37.3984 154.625 36.8516 153.516 35.7578C152.422 34.6484 151.875 32.8828 151.875 30.4609V15.0625H147.867V11.6406H151.875V5.52344H156.492V11.6406H162V15.0625H156.492V30.4609C156.492 31.6797 156.734 32.5781 157.219 33.1562C157.703 33.7344 158.352 34.0234 159.164 34.0234C159.711 34.0234 160.32 33.9766 160.992 33.8828C161.664 33.7734 162.188 33.6797 162.562 33.6016L163.195 36.625C162.523 36.8281 161.695 37.0078 160.711 37.1641C159.742 37.3203 158.836 37.3984 157.992 37.3984Z" fill="white"/>
<path d="M177.234 37.4922C174.891 37.4922 172.852 36.9609 171.117 35.8984C169.383 34.8203 168.039 33.3281 167.086 31.4219C166.148 29.5156 165.68 27.3125 165.68 24.8125V23.7812C165.68 21.375 166.172 19.2266 167.156 17.3359C168.156 15.4297 169.477 13.9297 171.117 12.8359C172.773 11.7266 174.578 11.1719 176.531 11.1719C179.938 11.1719 182.516 12.2031 184.266 14.2656C186.031 16.3281 186.914 19.0781 186.914 22.5156V25.3984H170.461L170.391 25.5156C170.438 27.9531 171.055 29.9609 172.242 31.5391C173.43 33.1016 175.094 33.8828 177.234 33.8828C178.797 33.8828 180.164 33.6641 181.336 33.2266C182.523 32.7734 183.547 32.1562 184.406 31.375L186.211 34.375C185.305 35.25 184.102 35.9922 182.602 36.6016C181.117 37.1953 179.328 37.4922 177.234 37.4922ZM170.602 21.7891H182.297V21.1797C182.297 19.3672 181.812 17.8516 180.844 16.6328C179.875 15.4141 178.438 14.8047 176.531 14.8047C174.984 14.8047 173.664 15.4609 172.57 16.7734C171.477 18.0703 170.805 19.7031 170.555 21.6719L170.602 21.7891Z" fill="white"/>
<path d="M190.523 37V34.0469L194.344 33.3906V15.2734L190.523 14.6172V11.6406H198.492L198.797 14.9453C199.609 13.7422 200.656 12.8125 201.938 12.1562C203.219 11.5 204.703 11.1719 206.391 11.1719C208.078 11.1719 209.523 11.5625 210.727 12.3438C211.945 13.125 212.859 14.2969 213.469 15.8594C214.266 14.4219 215.32 13.2812 216.633 12.4375C217.945 11.5938 219.477 11.1719 221.227 11.1719C223.82 11.1719 225.867 12.0625 227.367 13.8438C228.867 15.6094 229.617 18.2734 229.617 21.8359V33.3906L233.438 34.0469V37H221.156V34.0469L224.977 33.3906V21.7891C224.977 19.2891 224.547 17.5234 223.688 16.4922C222.828 15.4453 221.555 14.9219 219.867 14.9219C218.258 14.9219 216.961 15.4922 215.977 16.6328C215.008 17.7578 214.445 19.1797 214.289 20.8984V33.3906L218.109 34.0469V37H205.852V34.0469L209.672 33.3906V21.7891C209.672 19.4141 209.227 17.6797 208.336 16.5859C207.461 15.4766 206.188 14.9219 204.516 14.9219C203.109 14.9219 201.953 15.2109 201.047 15.7891C200.141 16.3672 199.445 17.1797 198.961 18.2266V33.3906L202.781 34.0469V37H190.523Z" fill="white"/>
<path d="M245.086 37.4922C242.445 37.4922 240.438 36.8516 239.062 35.5703C237.688 34.2734 237 32.4531 237 30.1094C237 27.7031 237.984 25.7734 239.953 24.3203C241.922 22.8516 244.656 22.1172 248.156 22.1172H252.68V19.6328C252.68 18.1016 252.211 16.9141 251.273 16.0703C250.352 15.2266 249.047 14.8047 247.359 14.8047C246.297 14.8047 245.375 14.9375 244.594 15.2031C243.812 15.4531 243.102 15.8047 242.461 16.2578L241.969 19.7969H238.406V13.9844C240.703 12.1094 243.711 11.1719 247.43 11.1719C250.508 11.1719 252.922 11.9062 254.672 13.375C256.422 14.8438 257.297 16.9453 257.297 19.6797V31.8906C257.297 32.2188 257.297 32.5391 257.297 32.8516C257.312 33.1641 257.336 33.4766 257.367 33.7891L259.828 34.0469V37H253.195C252.93 35.7188 252.766 34.5547 252.703 33.5078C251.812 34.6484 250.695 35.6016 249.352 36.3672C248.023 37.1172 246.602 37.4922 245.086 37.4922ZM245.766 33.625C247.297 33.625 248.695 33.2578 249.961 32.5234C251.227 31.7891 252.133 30.9062 252.68 29.875V25.2812H247.992C245.867 25.2812 244.273 25.7891 243.211 26.8047C242.148 27.8203 241.617 28.9531 241.617 30.2031C241.617 32.4844 243 33.625 245.766 33.625Z" fill="white"/>
<path d="M285.328 37.4922C283.266 37.4922 281.492 36.9844 280.008 35.9688C278.539 34.9375 277.414 33.5078 276.633 31.6797C275.852 29.8516 275.461 27.7188 275.461 25.2812V24.7891C275.461 22.0703 275.852 19.6875 276.633 17.6406C277.414 15.5938 278.547 14.0078 280.031 12.8828C281.516 11.7422 283.297 11.1719 285.375 11.1719C286.875 11.1719 288.195 11.4531 289.336 12.0156C290.492 12.5625 291.477 13.3594 292.289 14.4062V4.07031L288.469 3.41406V0.4375H296.906V33.3906L300.727 34.0469V37H292.898L292.523 33.9766C290.836 36.3203 288.438 37.4922 285.328 37.4922ZM286.5 33.7422C287.875 33.7422 289.031 33.4297 289.969 32.8047C290.906 32.1797 291.68 31.2969 292.289 30.1562V18.3906C291.695 17.3281 290.922 16.4844 289.969 15.8594C289.016 15.2344 287.875 14.9219 286.547 14.9219C284.344 14.9219 282.711 15.8359 281.648 17.6641C280.602 19.4922 280.078 21.8672 280.078 24.7891V25.2812C280.078 27.8281 280.602 29.875 281.648 31.4219C282.695 32.9688 284.312 33.7422 286.5 33.7422Z" fill="white"/>
<path d="M315.328 37.4922C312.984 37.4922 310.945 36.9609 309.211 35.8984C307.477 34.8203 306.133 33.3281 305.18 31.4219C304.242 29.5156 303.773 27.3125 303.773 24.8125V23.7812C303.773 21.375 304.266 19.2266 305.25 17.3359C306.25 15.4297 307.57 13.9297 309.211 12.8359C310.867 11.7266 312.672 11.1719 314.625 11.1719C318.031 11.1719 320.609 12.2031 322.359 14.2656C324.125 16.3281 325.008 19.0781 325.008 22.5156V25.3984H308.555L308.484 25.5156C308.531 27.9531 309.148 29.9609 310.336 31.5391C311.523 33.1016 313.188 33.8828 315.328 33.8828C316.891 33.8828 318.258 33.6641 319.43 33.2266C320.617 32.7734 321.641 32.1562 322.5 31.375L324.305 34.375C323.398 35.25 322.195 35.9922 320.695 36.6016C319.211 37.1953 317.422 37.4922 315.328 37.4922ZM308.695 21.7891H320.391V21.1797C320.391 19.3672 319.906 17.8516 318.938 16.6328C317.969 15.4141 316.531 14.8047 314.625 14.8047C313.078 14.8047 311.758 15.4609 310.664 16.7734C309.57 18.0703 308.898 19.7031 308.648 21.6719L308.695 21.7891Z" fill="white"/>
<path d="M49.0078 88.2422C47.7891 88.2422 46.4688 88.0703 45.0469 87.7266C43.625 87.3984 42.375 86.9453 41.2969 86.3672L42.4922 82.7812C43.3516 83.2344 44.3672 83.6094 45.5391 83.9062C46.7109 84.2031 47.8516 84.3516 48.9609 84.3516C51.0234 84.3516 52.5312 83.7734 53.4844 82.6172C54.4531 81.4609 54.9375 79.8125 54.9375 77.6719V75.2578C53.25 77.4141 50.9297 78.4922 47.9766 78.4922C45.9141 78.4922 44.1328 77.9844 42.6328 76.9688C41.1328 75.9375 39.9766 74.5078 39.1641 72.6797C38.3672 70.8359 37.9688 68.7031 37.9688 66.2812V65.7891C37.9688 63.0703 38.3672 60.6875 39.1641 58.6406C39.9766 56.5938 41.1328 55.0078 42.6328 53.8828C44.1328 52.7422 45.9297 52.1719 48.0234 52.1719C51.1641 52.1719 53.5703 53.3906 55.2422 55.8281L55.6641 52.6406H62.6953V55.5938L59.5547 56.2734V77.6719C59.5547 80.9531 58.6406 83.5312 56.8125 85.4062C54.9844 87.2969 52.3828 88.2422 49.0078 88.2422ZM49.125 74.7422C50.5156 74.7422 51.6797 74.4297 52.6172 73.8047C53.5547 73.1641 54.3281 72.2656 54.9375 71.1094V59.4375C54.3438 58.3594 53.5703 57.5078 52.6172 56.8828C51.6641 56.2422 50.5156 55.9219 49.1719 55.9219C46.9688 55.9219 45.3203 56.8438 44.2266 58.6875C43.1328 60.5312 42.5859 62.8984 42.5859 65.7891V66.2812C42.5859 68.8281 43.125 70.875 44.2031 72.4219C45.2812 73.9688 46.9219 74.7422 49.125 74.7422Z" fill="white"/>
<path d="M76.4297 78.4922C74.0859 78.4922 72.0469 77.9609 70.3125 76.8984C68.5781 75.8203 67.2344 74.3281 66.2812 72.4219C65.3438 70.5156 64.875 68.3125 64.875 65.8125V64.7812C64.875 62.375 65.3672 60.2266 66.3516 58.3359C67.3516 56.4297 68.6719 54.9297 70.3125 53.8359C71.9688 52.7266 73.7734 52.1719 75.7266 52.1719C79.1328 52.1719 81.7109 53.2031 83.4609 55.2656C85.2266 57.3281 86.1094 60.0781 86.1094 63.5156V66.3984H69.6562L69.5859 66.5156C69.6328 68.9531 70.25 70.9609 71.4375 72.5391C72.625 74.1016 74.2891 74.8828 76.4297 74.8828C77.9922 74.8828 79.3594 74.6641 80.5312 74.2266C81.7188 73.7734 82.7422 73.1562 83.6016 72.375L85.4062 75.375C84.5 76.25 83.2969 76.9922 81.7969 77.6016C80.3125 78.1953 78.5234 78.4922 76.4297 78.4922ZM69.7969 62.7891H81.4922V62.1797C81.4922 60.3672 81.0078 58.8516 80.0391 57.6328C79.0703 56.4141 77.6328 55.8047 75.7266 55.8047C74.1797 55.8047 72.8594 56.4609 71.7656 57.7734C70.6719 59.0703 70 60.7031 69.75 62.6719L69.7969 62.7891Z" fill="white"/>
<path d="M89.6719 78V75.0469L93.4922 74.3906V56.2734L89.6719 55.6172V52.6406H97.6172L98.0156 55.875L98.0625 56.3203C98.7812 55.0234 99.6641 54.0078 100.711 53.2734C101.773 52.5391 102.984 52.1719 104.344 52.1719C104.828 52.1719 105.32 52.2188 105.82 52.3125C106.336 52.3906 106.703 52.4688 106.922 52.5469L106.312 56.8359L103.102 56.6484C101.883 56.5703 100.859 56.8516 100.031 57.4922C99.2031 58.1172 98.5625 58.9609 98.1094 60.0234V74.3906L101.93 75.0469V78H89.6719Z" fill="white"/>
<path d="M120.82 78.4922C118.477 78.4922 116.438 77.9609 114.703 76.8984C112.969 75.8203 111.625 74.3281 110.672 72.4219C109.734 70.5156 109.266 68.3125 109.266 65.8125V64.7812C109.266 62.375 109.758 60.2266 110.742 58.3359C111.742 56.4297 113.062 54.9297 114.703 53.8359C116.359 52.7266 118.164 52.1719 120.117 52.1719C123.523 52.1719 126.102 53.2031 127.852 55.2656C129.617 57.3281 130.5 60.0781 130.5 63.5156V66.3984H114.047L113.977 66.5156C114.023 68.9531 114.641 70.9609 115.828 72.5391C117.016 74.1016 118.68 74.8828 120.82 74.8828C122.383 74.8828 123.75 74.6641 124.922 74.2266C126.109 73.7734 127.133 73.1562 127.992 72.375L129.797 75.375C128.891 76.25 127.688 76.9922 126.188 77.6016C124.703 78.1953 122.914 78.4922 120.82 78.4922ZM114.188 62.7891H125.883V62.1797C125.883 60.3672 125.398 58.8516 124.43 57.6328C123.461 56.4141 122.023 55.8047 120.117 55.8047C118.57 55.8047 117.25 56.4609 116.156 57.7734C115.062 59.0703 114.391 60.7031 114.141 62.6719L114.188 62.7891Z" fill="white"/>
<path d="M134.109 78V75.0469L137.93 74.3906V56.2734L134.109 55.6172V52.6406H142.055L142.383 56.4141C143.227 55.0703 144.281 54.0312 145.547 53.2969C146.828 52.5469 148.281 52.1719 149.906 52.1719C152.641 52.1719 154.758 52.9766 156.258 54.5859C157.758 56.1797 158.508 58.6484 158.508 61.9922V74.3906L162.328 75.0469V78H150.07V75.0469L153.891 74.3906V62.0859C153.891 59.8516 153.445 58.2656 152.555 57.3281C151.68 56.3906 150.336 55.9219 148.523 55.9219C147.195 55.9219 146.016 56.2422 144.984 56.8828C143.969 57.5234 143.156 58.3984 142.547 59.5078V74.3906L146.367 75.0469V78H134.109Z" fill="white"/>
<path d="M176.836 78.4922C174.539 78.4922 172.539 77.9609 170.836 76.8984C169.133 75.8203 167.812 74.3281 166.875 72.4219C165.938 70.5156 165.469 68.3125 165.469 65.8125V64.8281C165.469 62.4219 165.922 60.2656 166.828 58.3594C167.734 56.4531 169.039 54.9453 170.742 53.8359C172.445 52.7266 174.477 52.1719 176.836 52.1719C178.883 52.1719 180.672 52.5078 182.203 53.1797C183.75 53.8516 185.047 54.7734 186.094 55.9453L186.211 62.0391H182.602L181.805 57.6094C181.273 57.0625 180.609 56.625 179.812 56.2969C179.016 55.9688 178.078 55.8047 177 55.8047C175.625 55.8047 174.414 56.2109 173.367 57.0234C172.336 57.8359 171.531 58.9219 170.953 60.2812C170.375 61.6406 170.086 63.1562 170.086 64.8281V65.8125C170.086 68.5938 170.688 70.8047 171.891 72.4453C173.094 74.0703 174.734 74.8828 176.812 74.8828C178.375 74.8828 179.672 74.4531 180.703 73.5938C181.734 72.7344 182.367 71.5547 182.602 70.0547H186.75L186.797 70.1953C186.719 71.6484 186.289 73.0078 185.508 74.2734C184.727 75.5391 183.609 76.5625 182.156 77.3438C180.719 78.1094 178.945 78.4922 176.836 78.4922Z" fill="white"/>
<path d="M190.242 78V75.0469L194.062 74.3906V56.2734L190.242 55.6172V52.6406H198.68V74.3906L202.5 75.0469V78H190.242ZM193.828 46.3828V41.4375H198.68V46.3828H193.828Z" fill="white"/>
<path d="M213.891 78.4922C211.25 78.4922 209.242 77.8516 207.867 76.5703C206.492 75.2734 205.805 73.4531 205.805 71.1094C205.805 68.7031 206.789 66.7734 208.758 65.3203C210.727 63.8516 213.461 63.1172 216.961 63.1172H221.484V60.6328C221.484 59.1016 221.016 57.9141 220.078 57.0703C219.156 56.2266 217.852 55.8047 216.164 55.8047C215.102 55.8047 214.18 55.9375 213.398 56.2031C212.617 56.4531 211.906 56.8047 211.266 57.2578L210.773 60.7969H207.211V54.9844C209.508 53.1094 212.516 52.1719 216.234 52.1719C219.312 52.1719 221.727 52.9062 223.477 54.375C225.227 55.8438 226.102 57.9453 226.102 60.6797V72.8906C226.102 73.2188 226.102 73.5391 226.102 73.8516C226.117 74.1641 226.141 74.4766 226.172 74.7891L228.633 75.0469V78H222C221.734 76.7188 221.57 75.5547 221.508 74.5078C220.617 75.6484 219.5 76.6016 218.156 77.3672C216.828 78.1172 215.406 78.4922 213.891 78.4922ZM214.57 74.625C216.102 74.625 217.5 74.2578 218.766 73.5234C220.031 72.7891 220.938 71.9062 221.484 70.875V66.2812H216.797C214.672 66.2812 213.078 66.7891 212.016 67.8047C210.953 68.8203 210.422 69.9531 210.422 71.2031C210.422 73.4844 211.805 74.625 214.57 74.625Z" fill="white"/>
<path d="M232.219 78V75.0469L236.039 74.3906V56.2734L232.219 55.6172V52.6406H240.188L240.492 55.9453C241.305 54.7422 242.352 53.8125 243.633 53.1562C244.914 52.5 246.398 52.1719 248.086 52.1719C249.773 52.1719 251.219 52.5625 252.422 53.3438C253.641 54.125 254.555 55.2969 255.164 56.8594C255.961 55.4219 257.016 54.2812 258.328 53.4375C259.641 52.5938 261.172 52.1719 262.922 52.1719C265.516 52.1719 267.562 53.0625 269.062 54.8438C270.562 56.6094 271.312 59.2734 271.312 62.8359V74.3906L275.133 75.0469V78H262.852V75.0469L266.672 74.3906V62.7891C266.672 60.2891 266.242 58.5234 265.383 57.4922C264.523 56.4453 263.25 55.9219 261.562 55.9219C259.953 55.9219 258.656 56.4922 257.672 57.6328C256.703 58.7578 256.141 60.1797 255.984 61.8984V74.3906L259.805 75.0469V78H247.547V75.0469L251.367 74.3906V62.7891C251.367 60.4141 250.922 58.6797 250.031 57.5859C249.156 56.4766 247.883 55.9219 246.211 55.9219C244.805 55.9219 243.648 56.2109 242.742 56.7891C241.836 57.3672 241.141 58.1797 240.656 59.2266V74.3906L244.477 75.0469V78H232.219Z" fill="white"/>
<path d="M289.758 78.4922C287.414 78.4922 285.375 77.9609 283.641 76.8984C281.906 75.8203 280.562 74.3281 279.609 72.4219C278.672 70.5156 278.203 68.3125 278.203 65.8125V64.7812C278.203 62.375 278.695 60.2266 279.68 58.3359C280.68 56.4297 282 54.9297 283.641 53.8359C285.297 52.7266 287.102 52.1719 289.055 52.1719C292.461 52.1719 295.039 53.2031 296.789 55.2656C298.555 57.3281 299.438 60.0781 299.438 63.5156V66.3984H282.984L282.914 66.5156C282.961 68.9531 283.578 70.9609 284.766 72.5391C285.953 74.1016 287.617 74.8828 289.758 74.8828C291.32 74.8828 292.688 74.6641 293.859 74.2266C295.047 73.7734 296.07 73.1562 296.93 72.375L298.734 75.375C297.828 76.25 296.625 76.9922 295.125 77.6016C293.641 78.1953 291.852 78.4922 289.758 78.4922ZM283.125 62.7891H294.82V62.1797C294.82 60.3672 294.336 58.8516 293.367 57.6328C292.398 56.4141 290.961 55.8047 289.055 55.8047C287.508 55.8047 286.188 56.4609 285.094 57.7734C284 59.0703 283.328 60.7031 283.078 62.6719L283.125 62.7891Z" fill="white"/>
<path d="M303.047 78V75.0469L306.867 74.3906V56.2734L303.047 55.6172V52.6406H310.992L311.32 56.4141C312.164 55.0703 313.219 54.0312 314.484 53.2969C315.766 52.5469 317.219 52.1719 318.844 52.1719C321.578 52.1719 323.695 52.9766 325.195 54.5859C326.695 56.1797 327.445 58.6484 327.445 61.9922V74.3906L331.266 75.0469V78H319.008V75.0469L322.828 74.3906V62.0859C322.828 59.8516 322.383 58.2656 321.492 57.3281C320.617 56.3906 319.273 55.9219 317.461 55.9219C316.133 55.9219 314.953 56.2422 313.922 56.8828C312.906 57.5234 312.094 58.3984 311.484 59.5078V74.3906L315.305 75.0469V78H303.047Z" fill="white"/>
<path d="M342.562 78.3984C340.688 78.3984 339.195 77.8516 338.086 76.7578C336.992 75.6484 336.445 73.8828 336.445 71.4609V56.0625H332.438V52.6406H336.445V46.5234H341.062V52.6406H346.57V56.0625H341.062V71.4609C341.062 72.6797 341.305 73.5781 341.789 74.1562C342.273 74.7344 342.922 75.0234 343.734 75.0234C344.281 75.0234 344.891 74.9766 345.562 74.8828C346.234 74.7734 346.758 74.6797 347.133 74.6016L347.766 77.625C347.094 77.8281 346.266 78.0078 345.281 78.1641C344.312 78.3203 343.406 78.3984 342.562 78.3984Z" fill="white"/>
<path d="M361.711 78.4922C359.367 78.4922 357.344 77.9453 355.641 76.8516C353.953 75.7422 352.648 74.2188 351.727 72.2812C350.805 70.3281 350.344 68.1016 350.344 65.6016V65.0859C350.344 62.5859 350.805 60.3672 351.727 58.4297C352.648 56.4766 353.953 54.9453 355.641 53.8359C357.344 52.7266 359.352 52.1719 361.664 52.1719C364.008 52.1719 366.023 52.7266 367.711 53.8359C369.414 54.9453 370.727 56.4688 371.648 58.4062C372.57 60.3438 373.031 62.5703 373.031 65.0859V65.6016C373.031 68.1172 372.57 70.3516 371.648 72.3047C370.727 74.2422 369.422 75.7578 367.734 76.8516C366.047 77.9453 364.039 78.4922 361.711 78.4922ZM361.711 74.8828C363.898 74.8828 365.562 74.0078 366.703 72.2578C367.844 70.5078 368.414 68.2891 368.414 65.6016V65.0859C368.414 63.3047 368.156 61.7188 367.641 60.3281C367.141 58.9219 366.391 57.8203 365.391 57.0234C364.391 56.2109 363.148 55.8047 361.664 55.8047C360.195 55.8047 358.961 56.2109 357.961 57.0234C356.961 57.8203 356.211 58.9219 355.711 60.3281C355.211 61.7188 354.961 63.3047 354.961 65.0859V65.6016C354.961 68.2891 355.523 70.5078 356.648 72.2578C357.789 74.0078 359.477 74.8828 361.711 74.8828Z" fill="white"/>
<path d="M10.7344 119.492C8.67188 119.492 6.89844 118.984 5.41406 117.969C3.94531 116.938 2.82031 115.508 2.03906 113.68C1.25781 111.852 0.867188 109.719 0.867188 107.281V106.789C0.867188 104.07 1.25781 101.688 2.03906 99.6406C2.82031 97.5938 3.95312 96.0078 5.4375 94.8828C6.92188 93.7422 8.70312 93.1719 10.7812 93.1719C12.2812 93.1719 13.6016 93.4531 14.7422 94.0156C15.8984 94.5625 16.8828 95.3594 17.6953 96.4062V86.0703L13.875 85.4141V82.4375H22.3125V115.391L26.1328 116.047V119H18.3047L17.9297 115.977C16.2422 118.32 13.8438 119.492 10.7344 119.492ZM11.9062 115.742C13.2812 115.742 14.4375 115.43 15.375 114.805C16.3125 114.18 17.0859 113.297 17.6953 112.156V100.391C17.1016 99.3281 16.3281 98.4844 15.375 97.8594C14.4219 97.2344 13.2812 96.9219 11.9531 96.9219C9.75 96.9219 8.11719 97.8359 7.05469 99.6641C6.00781 101.492 5.48438 103.867 5.48438 106.789V107.281C5.48438 109.828 6.00781 111.875 7.05469 113.422C8.10156 114.969 9.71875 115.742 11.9062 115.742Z" fill="white"/>
<path d="M40.6406 119.492C38.2969 119.492 36.2734 118.945 34.5703 117.852C32.8828 116.742 31.5781 115.219 30.6562 113.281C29.7344 111.328 29.2734 109.102 29.2734 106.602V106.086C29.2734 103.586 29.7344 101.367 30.6562 99.4297C31.5781 97.4766 32.8828 95.9453 34.5703 94.8359C36.2734 93.7266 38.2812 93.1719 40.5938 93.1719C42.9375 93.1719 44.9531 93.7266 46.6406 94.8359C48.3438 95.9453 49.6562 97.4688 50.5781 99.4062C51.5 101.344 51.9609 103.57 51.9609 106.086V106.602C51.9609 109.117 51.5 111.352 50.5781 113.305C49.6562 115.242 48.3516 116.758 46.6641 117.852C44.9766 118.945 42.9688 119.492 40.6406 119.492ZM40.6406 115.883C42.8281 115.883 44.4922 115.008 45.6328 113.258C46.7734 111.508 47.3438 109.289 47.3438 106.602V106.086C47.3438 104.305 47.0859 102.719 46.5703 101.328C46.0703 99.9219 45.3203 98.8203 44.3203 98.0234C43.3203 97.2109 42.0781 96.8047 40.5938 96.8047C39.125 96.8047 37.8906 97.2109 36.8906 98.0234C35.8906 98.8203 35.1406 99.9219 34.6406 101.328C34.1406 102.719 33.8906 104.305 33.8906 106.086V106.602C33.8906 109.289 34.4531 111.508 35.5781 113.258C36.7188 115.008 38.4062 115.883 40.6406 115.883Z" fill="white"/>
<path d="M67.9453 119V116.047L71.7656 115.391V88.5078L67.9453 87.8516V84.875H77.9297L88.9219 110.773H89.0625L99.7031 84.875H109.992V87.8516L106.172 88.5078V115.391L109.992 116.047V119H97.7344V116.047L101.766 115.391V91.1797L101.648 91.1562L90.5625 117.781H87.4922L76.0312 91.2031L75.9141 91.2266L76.0781 105.5V115.391L80.2031 116.047V119H67.9453Z" fill="white"/>
<path d="M125.484 119.492C123.141 119.492 121.102 118.961 119.367 117.898C117.633 116.82 116.289 115.328 115.336 113.422C114.398 111.516 113.93 109.312 113.93 106.812V105.781C113.93 103.375 114.422 101.227 115.406 99.3359C116.406 97.4297 117.727 95.9297 119.367 94.8359C121.023 93.7266 122.828 93.1719 124.781 93.1719C128.188 93.1719 130.766 94.2031 132.516 96.2656C134.281 98.3281 135.164 101.078 135.164 104.516V107.398H118.711L118.641 107.516C118.688 109.953 119.305 111.961 120.492 113.539C121.68 115.102 123.344 115.883 125.484 115.883C127.047 115.883 128.414 115.664 129.586 115.227C130.773 114.773 131.797 114.156 132.656 113.375L134.461 116.375C133.555 117.25 132.352 117.992 130.852 118.602C129.367 119.195 127.578 119.492 125.484 119.492ZM118.852 103.789H130.547V103.18C130.547 101.367 130.062 99.8516 129.094 98.6328C128.125 97.4141 126.688 96.8047 124.781 96.8047C123.234 96.8047 121.914 97.4609 120.82 98.7734C119.727 100.07 119.055 101.703 118.805 103.672L118.852 103.789Z" fill="white"/>
<path d="M138.609 119V116.047L142.43 115.391V97.2734L138.609 96.6172V93.6406H147.047V115.391L150.867 116.047V119H138.609ZM142.195 87.3828V82.4375H147.047V87.3828H142.195Z" fill="white"/>
<path d="M165.516 119.492C163.172 119.492 161.148 118.945 159.445 117.852C157.758 116.742 156.453 115.219 155.531 113.281C154.609 111.328 154.148 109.102 154.148 106.602V106.086C154.148 103.586 154.609 101.367 155.531 99.4297C156.453 97.4766 157.758 95.9453 159.445 94.8359C161.148 93.7266 163.156 93.1719 165.469 93.1719C167.812 93.1719 169.828 93.7266 171.516 94.8359C173.219 95.9453 174.531 97.4688 175.453 99.4062C176.375 101.344 176.836 103.57 176.836 106.086V106.602C176.836 109.117 176.375 111.352 175.453 113.305C174.531 115.242 173.227 116.758 171.539 117.852C169.852 118.945 167.844 119.492 165.516 119.492ZM165.516 115.883C167.703 115.883 169.367 115.008 170.508 113.258C171.648 111.508 172.219 109.289 172.219 106.602V106.086C172.219 104.305 171.961 102.719 171.445 101.328C170.945 99.9219 170.195 98.8203 169.195 98.0234C168.195 97.2109 166.953 96.8047 165.469 96.8047C164 96.8047 162.766 97.2109 161.766 98.0234C160.766 98.8203 160.016 99.9219 159.516 101.328C159.016 102.719 158.766 104.305 158.766 106.086V106.602C158.766 109.289 159.328 111.508 160.453 113.258C161.594 115.008 163.281 115.883 165.516 115.883Z" fill="white"/>
<path d="M192.258 119V116.047L194.789 115.695L206.719 84.875H210.68L222.398 115.695L224.906 116.047V119H215.109V116.047L217.688 115.602L215.438 109.32H201.773L199.453 115.602L202.031 116.047V119H192.258ZM203.203 105.453H214.031L209.016 91.5781L208.734 90.8047H208.594L208.312 91.5781L203.203 105.453Z" fill="white"/>
<path d="M228.305 119V116.047L232.125 115.391V97.2734L228.305 96.6172V93.6406H236.273L236.578 96.9453C237.391 95.7422 238.438 94.8125 239.719 94.1562C241 93.5 242.484 93.1719 244.172 93.1719C245.859 93.1719 247.305 93.5625 248.508 94.3438C249.727 95.125 250.641 96.2969 251.25 97.8594C252.047 96.4219 253.102 95.2812 254.414 94.4375C255.727 93.5938 257.258 93.1719 259.008 93.1719C261.602 93.1719 263.648 94.0625 265.148 95.8438C266.648 97.6094 267.398 100.273 267.398 103.836V115.391L271.219 116.047V119H258.938V116.047L262.758 115.391V103.789C262.758 101.289 262.328 99.5234 261.469 98.4922C260.609 97.4453 259.336 96.9219 257.648 96.9219C256.039 96.9219 254.742 97.4922 253.758 98.6328C252.789 99.7578 252.227 101.18 252.07 102.898V115.391L255.891 116.047V119H243.633V116.047L247.453 115.391V103.789C247.453 101.414 247.008 99.6797 246.117 98.5859C245.242 97.4766 243.969 96.9219 242.297 96.9219C240.891 96.9219 239.734 97.2109 238.828 97.7891C237.922 98.3672 237.227 99.1797 236.742 100.227V115.391L240.562 116.047V119H228.305Z" fill="white"/>
<path d="M288.141 119.492C284.875 119.492 282.422 118.242 280.781 115.742L280.359 119H276.375V86.0703L272.555 85.4141V82.4375H280.992V96.6406C281.789 95.5156 282.773 94.6562 283.945 94.0625C285.133 93.4688 286.516 93.1719 288.094 93.1719C290.188 93.1719 291.969 93.7422 293.438 94.8828C294.922 96.0078 296.055 97.5938 296.836 99.6406C297.633 101.688 298.031 104.07 298.031 106.789V107.281C298.031 109.719 297.633 111.852 296.836 113.68C296.055 115.508 294.922 116.938 293.438 117.969C291.969 118.984 290.203 119.492 288.141 119.492ZM286.969 115.742C289.141 115.742 290.75 114.969 291.797 113.422C292.859 111.875 293.391 109.828 293.391 107.281V106.789C293.391 103.867 292.859 101.492 291.797 99.6641C290.734 97.8359 289.109 96.9219 286.922 96.9219C285.5 96.9219 284.297 97.2656 283.312 97.9531C282.344 98.6406 281.57 99.5625 280.992 100.719V111.922C281.57 113.094 282.352 114.023 283.336 114.711C284.336 115.398 285.547 115.742 286.969 115.742Z" fill="white"/>
<path d="M301.359 119V116.047L305.18 115.391V97.2734L301.359 96.6172V93.6406H309.797V115.391L313.617 116.047V119H301.359ZM304.945 87.3828V82.4375H309.797V87.3828H304.945Z" fill="white"/>
<path d="M328.359 119.492C326.016 119.492 323.977 118.961 322.242 117.898C320.508 116.82 319.164 115.328 318.211 113.422C317.273 111.516 316.805 109.312 316.805 106.812V105.781C316.805 103.375 317.297 101.227 318.281 99.3359C319.281 97.4297 320.602 95.9297 322.242 94.8359C323.898 93.7266 325.703 93.1719 327.656 93.1719C331.062 93.1719 333.641 94.2031 335.391 96.2656C337.156 98.3281 338.039 101.078 338.039 104.516V107.398H321.586L321.516 107.516C321.562 109.953 322.18 111.961 323.367 113.539C324.555 115.102 326.219 115.883 328.359 115.883C329.922 115.883 331.289 115.664 332.461 115.227C333.648 114.773 334.672 114.156 335.531 113.375L337.336 116.375C336.43 117.25 335.227 117.992 333.727 118.602C332.242 119.195 330.453 119.492 328.359 119.492ZM321.727 103.789H333.422V103.18C333.422 101.367 332.938 99.8516 331.969 98.6328C331 97.4141 329.562 96.8047 327.656 96.8047C326.109 96.8047 324.789 97.4609 323.695 98.7734C322.602 100.07 321.93 101.703 321.68 103.672L321.727 103.789Z" fill="white"/>
<path d="M341.648 119V116.047L345.469 115.391V97.2734L341.648 96.6172V93.6406H349.594L349.922 97.4141C350.766 96.0703 351.82 95.0312 353.086 94.2969C354.367 93.5469 355.82 93.1719 357.445 93.1719C360.18 93.1719 362.297 93.9766 363.797 95.5859C365.297 97.1797 366.047 99.6484 366.047 102.992V115.391L369.867 116.047V119H357.609V116.047L361.43 115.391V103.086C361.43 100.852 360.984 99.2656 360.094 98.3281C359.219 97.3906 357.875 96.9219 356.062 96.9219C354.734 96.9219 353.555 97.2422 352.523 97.8828C351.508 98.5234 350.695 99.3984 350.086 100.508V115.391L353.906 116.047V119H341.648Z" fill="white"/>
<path d="M381.164 119.398C379.289 119.398 377.797 118.852 376.688 117.758C375.594 116.648 375.047 114.883 375.047 112.461V97.0625H371.039V93.6406H375.047V87.5234H379.664V93.6406H385.172V97.0625H379.664V112.461C379.664 113.68 379.906 114.578 380.391 115.156C380.875 115.734 381.523 116.023 382.336 116.023C382.883 116.023 383.492 115.977 384.164 115.883C384.836 115.773 385.359 115.68 385.734 115.602L386.367 118.625C385.695 118.828 384.867 119.008 383.883 119.164C382.914 119.32 382.008 119.398 381.164 119.398Z" fill="white"/>
<path d="M400.406 119.492C398.062 119.492 396.023 118.961 394.289 117.898C392.555 116.82 391.211 115.328 390.258 113.422C389.32 111.516 388.852 109.312 388.852 106.812V105.781C388.852 103.375 389.344 101.227 390.328 99.3359C391.328 97.4297 392.648 95.9297 394.289 94.8359C395.945 93.7266 397.75 93.1719 399.703 93.1719C403.109 93.1719 405.688 94.2031 407.438 96.2656C409.203 98.3281 410.086 101.078 410.086 104.516V107.398H393.633L393.562 107.516C393.609 109.953 394.227 111.961 395.414 113.539C396.602 115.102 398.266 115.883 400.406 115.883C401.969 115.883 403.336 115.664 404.508 115.227C405.695 114.773 406.719 114.156 407.578 113.375L409.383 116.375C408.477 117.25 407.273 117.992 405.773 118.602C404.289 119.195 402.5 119.492 400.406 119.492ZM393.773 103.789H405.469V103.18C405.469 101.367 404.984 99.8516 404.016 98.6328C403.047 97.4141 401.609 96.8047 399.703 96.8047C398.156 96.8047 396.836 97.4609 395.742 98.7734C394.648 100.07 393.977 101.703 393.727 103.672L393.773 103.789Z" fill="white"/>
</svg>
