<svg width="411" height="210" viewBox="0 0 411 210" fill="none" xmlns="http://www.w3.org/2000/svg">
<path d="M75.4688 70.9844C70.4375 70.9844 65.8594 70.4219 61.7344 69.2969C57.6094 68.1719 53.5469 66.2188 49.5469 63.4375V46.9375H60.1406L61.5938 56.6406C62.9688 57.8281 64.8906 58.7969 67.3594 59.5469C69.8594 60.2656 72.5625 60.625 75.4688 60.625C79.1875 60.625 82.0312 59.875 84 58.375C85.9688 56.8438 86.9531 54.7812 86.9531 52.1875C86.9531 49.75 86.0156 47.7031 84.1406 46.0469C82.2969 44.3594 79.0469 42.7969 74.3906 41.3594C66.2969 39.0156 60.2656 36.2344 56.2969 33.0156C52.3281 29.7969 50.3438 25.3906 50.3438 19.7969C50.3438 16.1094 51.3594 12.8594 53.3906 10.0469C55.4531 7.20312 58.2969 4.96875 61.9219 3.34375C65.5469 1.71875 69.7344 0.875 74.4844 0.8125C79.7344 0.75 84.375 1.375 88.4062 2.6875C92.4688 4 95.9688 5.82812 98.9062 8.17188V23.5469H88.6406L86.8594 14.1719C85.6719 13.4219 84.0625 12.7656 82.0312 12.2031C80.0312 11.6406 77.75 11.3594 75.1875 11.3594C71.9062 11.3594 69.2188 12.0938 67.125 13.5625C65.0312 15.0312 63.9844 17.0938 63.9844 19.75C63.9844 22.0312 64.9531 23.9375 66.8906 25.4688C68.8594 26.9688 72.4688 28.5625 77.7188 30.25C85.25 32.3438 90.9531 35.1094 94.8281 38.5469C98.7344 41.9844 100.688 46.5 100.688 52.0938C100.688 56 99.6406 59.3594 97.5469 62.1719C95.4531 64.9844 92.5 67.1562 88.6875 68.6875C84.9062 70.2188 80.5 70.9844 75.4688 70.9844Z" fill="white"/>
<path d="M106.125 70V61.7969L113.391 60.3906V11.4062L106.125 10V1.75H134.344V10L127.078 11.4062V60.3906L134.344 61.7969V70H106.125Z" fill="white"/>
<path d="M171.328 70.9844C164.547 70.9844 158.766 69.5781 153.984 66.7656C149.203 63.9531 145.531 60.0469 142.969 55.0469C140.438 50.0469 139.172 44.25 139.172 37.6562V35.3125C139.172 28.5 140.438 22.5 142.969 17.3125C145.5 12.125 149.078 8.07812 153.703 5.17188C158.359 2.23438 163.859 0.765625 170.203 0.765625C175.078 0.765625 179.672 1.4375 183.984 2.78125C188.328 4.125 192.094 6.14062 195.281 8.82812V23.9688H185.156L183.234 14.8281C181.984 13.7656 180.328 12.9219 178.266 12.2969C176.234 11.6406 173.891 11.3125 171.234 11.3125C167.391 11.3125 164.094 12.3125 161.344 14.3125C158.594 16.3125 156.484 19.1094 155.016 22.7031C153.547 26.2969 152.812 30.4688 152.812 35.2188V37.6562C152.812 44.5938 154.438 50.1406 157.688 54.2969C160.938 58.4219 165.625 60.4844 171.75 60.4844C174.156 60.4844 176.359 60.25 178.359 59.7812C180.391 59.3125 182.062 58.7656 183.375 58.1406V46.5625L173.625 45.8125V36.2031H197.109V63.8125C194.078 65.9688 190.422 67.7031 186.141 69.0156C181.859 70.3281 176.922 70.9844 171.328 70.9844Z" fill="white"/>
<path d="M204 70V61.7969L211.266 60.3906V11.4062L204 10V1.75H231.516L250.125 49.3281H250.406L268.406 1.75H295.969V10L288.656 11.4062V60.3906L295.969 61.7969V70H267.703V61.7969L275.344 60.3906V47.3125L275.578 16.5156L275.297 16.4688L254.906 69.0625H244.547L223.688 16.8906L223.406 16.9375L224.203 45.9062V60.3906L232.266 61.7969V70H204Z" fill="white"/>
<path d="M295.641 70V61.7969L300.516 61.0938L322.219 1.75H336.234L357.797 61.0938L362.672 61.7969V70H339.422V61.7969L344.156 60.9531L341.156 51.5781H317.156L314.156 60.9531L318.891 61.7969V70H295.641ZM320.391 41.5H337.922L329.953 18.1094L329.297 16.0469H329.016L328.312 18.25L320.391 41.5Z" fill="white"/>
<path d="M96.1172 127.492C94.4141 127.492 92.8203 127.32 91.3359 126.977C89.8516 126.633 88.2734 126.102 86.6016 125.383L86.5547 119.359H90.0469L90.9141 122.992C92.5703 123.68 94.3047 124.023 96.1172 124.023C97.9922 124.023 99.3359 123.664 100.148 122.945C100.961 122.227 101.367 121.336 101.367 120.273C101.367 119.273 100.953 118.43 100.125 117.742C99.3125 117.039 97.8281 116.445 95.6719 115.961C92.6094 115.258 90.3516 114.32 88.8984 113.148C87.4609 111.961 86.7422 110.383 86.7422 108.414C86.7422 107.039 87.1406 105.812 87.9375 104.734C88.7344 103.641 89.8438 102.773 91.2656 102.133C92.6875 101.492 94.3438 101.172 96.2344 101.172C98.1562 101.172 99.7969 101.391 101.156 101.828C102.531 102.266 103.727 102.852 104.742 103.586L104.977 109.375H101.508L100.758 106C100.211 105.594 99.5625 105.281 98.8125 105.062C98.0625 104.844 97.2031 104.734 96.2344 104.734C94.7969 104.734 93.625 105.07 92.7188 105.742C91.8281 106.414 91.3828 107.258 91.3828 108.273C91.3828 108.867 91.5078 109.383 91.7578 109.82C92.0234 110.258 92.5234 110.656 93.2578 111.016C93.9922 111.359 95.0703 111.703 96.4922 112.047C100.023 112.875 102.484 113.93 103.875 115.211C105.281 116.492 105.984 118.07 105.984 119.945C105.984 122.086 105.188 123.883 103.594 125.336C102.016 126.773 99.5234 127.492 96.1172 127.492Z" fill="white"/>
<path d="M109.641 127V124.047L113.461 123.391V105.273L109.641 104.617V101.641H118.078V123.391L121.898 124.047V127H109.641ZM113.227 95.3828V90.4375H118.078V95.3828H113.227Z" fill="white"/>
<path d="M135.352 127.492C133.648 127.492 132.055 127.32 130.57 126.977C129.086 126.633 127.508 126.102 125.836 125.383L125.789 119.359H129.281L130.148 122.992C131.805 123.68 133.539 124.023 135.352 124.023C137.227 124.023 138.57 123.664 139.383 122.945C140.195 122.227 140.602 121.336 140.602 120.273C140.602 119.273 140.188 118.43 139.359 117.742C138.547 117.039 137.062 116.445 134.906 115.961C131.844 115.258 129.586 114.32 128.133 113.148C126.695 111.961 125.977 110.383 125.977 108.414C125.977 107.039 126.375 105.812 127.172 104.734C127.969 103.641 129.078 102.773 130.5 102.133C131.922 101.492 133.578 101.172 135.469 101.172C137.391 101.172 139.031 101.391 140.391 101.828C141.766 102.266 142.961 102.852 143.977 103.586L144.211 109.375H140.742L139.992 106C139.445 105.594 138.797 105.281 138.047 105.062C137.297 104.844 136.438 104.734 135.469 104.734C134.031 104.734 132.859 105.07 131.953 105.742C131.062 106.414 130.617 107.258 130.617 108.273C130.617 108.867 130.742 109.383 130.992 109.82C131.258 110.258 131.758 110.656 132.492 111.016C133.227 111.359 134.305 111.703 135.727 112.047C139.258 112.875 141.719 113.93 143.109 115.211C144.516 116.492 145.219 118.07 145.219 119.945C145.219 122.086 144.422 123.883 142.828 125.336C141.25 126.773 138.758 127.492 135.352 127.492Z" fill="white"/>
<path d="M157.992 127.398C156.117 127.398 154.625 126.852 153.516 125.758C152.422 124.648 151.875 122.883 151.875 120.461V105.062H147.867V101.641H151.875V95.5234H156.492V101.641H162V105.062H156.492V120.461C156.492 121.68 156.734 122.578 157.219 123.156C157.703 123.734 158.352 124.023 159.164 124.023C159.711 124.023 160.32 123.977 160.992 123.883C161.664 123.773 162.188 123.68 162.562 123.602L163.195 126.625C162.523 126.828 161.695 127.008 160.711 127.164C159.742 127.32 158.836 127.398 157.992 127.398Z" fill="white"/>
<path d="M177.234 127.492C174.891 127.492 172.852 126.961 171.117 125.898C169.383 124.82 168.039 123.328 167.086 121.422C166.148 119.516 165.68 117.312 165.68 114.812V113.781C165.68 111.375 166.172 109.227 167.156 107.336C168.156 105.43 169.477 103.93 171.117 102.836C172.773 101.727 174.578 101.172 176.531 101.172C179.938 101.172 182.516 102.203 184.266 104.266C186.031 106.328 186.914 109.078 186.914 112.516V115.398H170.461L170.391 115.516C170.438 117.953 171.055 119.961 172.242 121.539C173.43 123.102 175.094 123.883 177.234 123.883C178.797 123.883 180.164 123.664 181.336 123.227C182.523 122.773 183.547 122.156 184.406 121.375L186.211 124.375C185.305 125.25 184.102 125.992 182.602 126.602C181.117 127.195 179.328 127.492 177.234 127.492ZM170.602 111.789H182.297V111.18C182.297 109.367 181.812 107.852 180.844 106.633C179.875 105.414 178.438 104.805 176.531 104.805C174.984 104.805 173.664 105.461 172.57 106.773C171.477 108.07 170.805 109.703 170.555 111.672L170.602 111.789Z" fill="white"/>
<path d="M190.523 127V124.047L194.344 123.391V105.273L190.523 104.617V101.641H198.492L198.797 104.945C199.609 103.742 200.656 102.812 201.938 102.156C203.219 101.5 204.703 101.172 206.391 101.172C208.078 101.172 209.523 101.562 210.727 102.344C211.945 103.125 212.859 104.297 213.469 105.859C214.266 104.422 215.32 103.281 216.633 102.438C217.945 101.594 219.477 101.172 221.227 101.172C223.82 101.172 225.867 102.062 227.367 103.844C228.867 105.609 229.617 108.273 229.617 111.836V123.391L233.438 124.047V127H221.156V124.047L224.977 123.391V111.789C224.977 109.289 224.547 107.523 223.688 106.492C222.828 105.445 221.555 104.922 219.867 104.922C218.258 104.922 216.961 105.492 215.977 106.633C215.008 107.758 214.445 109.18 214.289 110.898V123.391L218.109 124.047V127H205.852V124.047L209.672 123.391V111.789C209.672 109.414 209.227 107.68 208.336 106.586C207.461 105.477 206.188 104.922 204.516 104.922C203.109 104.922 201.953 105.211 201.047 105.789C200.141 106.367 199.445 107.18 198.961 108.227V123.391L202.781 124.047V127H190.523Z" fill="white"/>
<path d="M245.086 127.492C242.445 127.492 240.438 126.852 239.062 125.57C237.688 124.273 237 122.453 237 120.109C237 117.703 237.984 115.773 239.953 114.32C241.922 112.852 244.656 112.117 248.156 112.117H252.68V109.633C252.68 108.102 252.211 106.914 251.273 106.07C250.352 105.227 249.047 104.805 247.359 104.805C246.297 104.805 245.375 104.938 244.594 105.203C243.812 105.453 243.102 105.805 242.461 106.258L241.969 109.797H238.406V103.984C240.703 102.109 243.711 101.172 247.43 101.172C250.508 101.172 252.922 101.906 254.672 103.375C256.422 104.844 257.297 106.945 257.297 109.68V121.891C257.297 122.219 257.297 122.539 257.297 122.852C257.312 123.164 257.336 123.477 257.367 123.789L259.828 124.047V127H253.195C252.93 125.719 252.766 124.555 252.703 123.508C251.812 124.648 250.695 125.602 249.352 126.367C248.023 127.117 246.602 127.492 245.086 127.492ZM245.766 123.625C247.297 123.625 248.695 123.258 249.961 122.523C251.227 121.789 252.133 120.906 252.68 119.875V115.281H247.992C245.867 115.281 244.273 115.789 243.211 116.805C242.148 117.82 241.617 118.953 241.617 120.203C241.617 122.484 243 123.625 245.766 123.625Z" fill="white"/>
<path d="M285.328 127.492C283.266 127.492 281.492 126.984 280.008 125.969C278.539 124.938 277.414 123.508 276.633 121.68C275.852 119.852 275.461 117.719 275.461 115.281V114.789C275.461 112.07 275.852 109.688 276.633 107.641C277.414 105.594 278.547 104.008 280.031 102.883C281.516 101.742 283.297 101.172 285.375 101.172C286.875 101.172 288.195 101.453 289.336 102.016C290.492 102.562 291.477 103.359 292.289 104.406V94.0703L288.469 93.4141V90.4375H296.906V123.391L300.727 124.047V127H292.898L292.523 123.977C290.836 126.32 288.438 127.492 285.328 127.492ZM286.5 123.742C287.875 123.742 289.031 123.43 289.969 122.805C290.906 122.18 291.68 121.297 292.289 120.156V108.391C291.695 107.328 290.922 106.484 289.969 105.859C289.016 105.234 287.875 104.922 286.547 104.922C284.344 104.922 282.711 105.836 281.648 107.664C280.602 109.492 280.078 111.867 280.078 114.789V115.281C280.078 117.828 280.602 119.875 281.648 121.422C282.695 122.969 284.312 123.742 286.5 123.742Z" fill="white"/>
<path d="M315.328 127.492C312.984 127.492 310.945 126.961 309.211 125.898C307.477 124.82 306.133 123.328 305.18 121.422C304.242 119.516 303.773 117.312 303.773 114.812V113.781C303.773 111.375 304.266 109.227 305.25 107.336C306.25 105.43 307.57 103.93 309.211 102.836C310.867 101.727 312.672 101.172 314.625 101.172C318.031 101.172 320.609 102.203 322.359 104.266C324.125 106.328 325.008 109.078 325.008 112.516V115.398H308.555L308.484 115.516C308.531 117.953 309.148 119.961 310.336 121.539C311.523 123.102 313.188 123.883 315.328 123.883C316.891 123.883 318.258 123.664 319.43 123.227C320.617 122.773 321.641 122.156 322.5 121.375L324.305 124.375C323.398 125.25 322.195 125.992 320.695 126.602C319.211 127.195 317.422 127.492 315.328 127.492ZM308.695 111.789H320.391V111.18C320.391 109.367 319.906 107.852 318.938 106.633C317.969 105.414 316.531 104.805 314.625 104.805C313.078 104.805 311.758 105.461 310.664 106.773C309.57 108.07 308.898 109.703 308.648 111.672L308.695 111.789Z" fill="white"/>
<path d="M49.0078 178.242C47.7891 178.242 46.4688 178.07 45.0469 177.727C43.625 177.398 42.375 176.945 41.2969 176.367L42.4922 172.781C43.3516 173.234 44.3672 173.609 45.5391 173.906C46.7109 174.203 47.8516 174.352 48.9609 174.352C51.0234 174.352 52.5312 173.773 53.4844 172.617C54.4531 171.461 54.9375 169.812 54.9375 167.672V165.258C53.25 167.414 50.9297 168.492 47.9766 168.492C45.9141 168.492 44.1328 167.984 42.6328 166.969C41.1328 165.938 39.9766 164.508 39.1641 162.68C38.3672 160.836 37.9688 158.703 37.9688 156.281V155.789C37.9688 153.07 38.3672 150.688 39.1641 148.641C39.9766 146.594 41.1328 145.008 42.6328 143.883C44.1328 142.742 45.9297 142.172 48.0234 142.172C51.1641 142.172 53.5703 143.391 55.2422 145.828L55.6641 142.641H62.6953V145.594L59.5547 146.273V167.672C59.5547 170.953 58.6406 173.531 56.8125 175.406C54.9844 177.297 52.3828 178.242 49.0078 178.242ZM49.125 164.742C50.5156 164.742 51.6797 164.43 52.6172 163.805C53.5547 163.164 54.3281 162.266 54.9375 161.109V149.438C54.3438 148.359 53.5703 147.508 52.6172 146.883C51.6641 146.242 50.5156 145.922 49.1719 145.922C46.9688 145.922 45.3203 146.844 44.2266 148.688C43.1328 150.531 42.5859 152.898 42.5859 155.789V156.281C42.5859 158.828 43.125 160.875 44.2031 162.422C45.2812 163.969 46.9219 164.742 49.125 164.742Z" fill="white"/>
<path d="M76.4297 168.492C74.0859 168.492 72.0469 167.961 70.3125 166.898C68.5781 165.82 67.2344 164.328 66.2812 162.422C65.3438 160.516 64.875 158.312 64.875 155.812V154.781C64.875 152.375 65.3672 150.227 66.3516 148.336C67.3516 146.43 68.6719 144.93 70.3125 143.836C71.9688 142.727 73.7734 142.172 75.7266 142.172C79.1328 142.172 81.7109 143.203 83.4609 145.266C85.2266 147.328 86.1094 150.078 86.1094 153.516V156.398H69.6562L69.5859 156.516C69.6328 158.953 70.25 160.961 71.4375 162.539C72.625 164.102 74.2891 164.883 76.4297 164.883C77.9922 164.883 79.3594 164.664 80.5312 164.227C81.7188 163.773 82.7422 163.156 83.6016 162.375L85.4062 165.375C84.5 166.25 83.2969 166.992 81.7969 167.602C80.3125 168.195 78.5234 168.492 76.4297 168.492ZM69.7969 152.789H81.4922V152.18C81.4922 150.367 81.0078 148.852 80.0391 147.633C79.0703 146.414 77.6328 145.805 75.7266 145.805C74.1797 145.805 72.8594 146.461 71.7656 147.773C70.6719 149.07 70 150.703 69.75 152.672L69.7969 152.789Z" fill="white"/>
<path d="M89.6719 168V165.047L93.4922 164.391V146.273L89.6719 145.617V142.641H97.6172L98.0156 145.875L98.0625 146.32C98.7812 145.023 99.6641 144.008 100.711 143.273C101.773 142.539 102.984 142.172 104.344 142.172C104.828 142.172 105.32 142.219 105.82 142.312C106.336 142.391 106.703 142.469 106.922 142.547L106.312 146.836L103.102 146.648C101.883 146.57 100.859 146.852 100.031 147.492C99.2031 148.117 98.5625 148.961 98.1094 150.023V164.391L101.93 165.047V168H89.6719Z" fill="white"/>
<path d="M120.82 168.492C118.477 168.492 116.438 167.961 114.703 166.898C112.969 165.82 111.625 164.328 110.672 162.422C109.734 160.516 109.266 158.312 109.266 155.812V154.781C109.266 152.375 109.758 150.227 110.742 148.336C111.742 146.43 113.062 144.93 114.703 143.836C116.359 142.727 118.164 142.172 120.117 142.172C123.523 142.172 126.102 143.203 127.852 145.266C129.617 147.328 130.5 150.078 130.5 153.516V156.398H114.047L113.977 156.516C114.023 158.953 114.641 160.961 115.828 162.539C117.016 164.102 118.68 164.883 120.82 164.883C122.383 164.883 123.75 164.664 124.922 164.227C126.109 163.773 127.133 163.156 127.992 162.375L129.797 165.375C128.891 166.25 127.688 166.992 126.188 167.602C124.703 168.195 122.914 168.492 120.82 168.492ZM114.188 152.789H125.883V152.18C125.883 150.367 125.398 148.852 124.43 147.633C123.461 146.414 122.023 145.805 120.117 145.805C118.57 145.805 117.25 146.461 116.156 147.773C115.062 149.07 114.391 150.703 114.141 152.672L114.188 152.789Z" fill="white"/>
<path d="M134.109 168V165.047L137.93 164.391V146.273L134.109 145.617V142.641H142.055L142.383 146.414C143.227 145.07 144.281 144.031 145.547 143.297C146.828 142.547 148.281 142.172 149.906 142.172C152.641 142.172 154.758 142.977 156.258 144.586C157.758 146.18 158.508 148.648 158.508 151.992V164.391L162.328 165.047V168H150.07V165.047L153.891 164.391V152.086C153.891 149.852 153.445 148.266 152.555 147.328C151.68 146.391 150.336 145.922 148.523 145.922C147.195 145.922 146.016 146.242 144.984 146.883C143.969 147.523 143.156 148.398 142.547 149.508V164.391L146.367 165.047V168H134.109Z" fill="white"/>
<path d="M176.836 168.492C174.539 168.492 172.539 167.961 170.836 166.898C169.133 165.82 167.812 164.328 166.875 162.422C165.938 160.516 165.469 158.312 165.469 155.812V154.828C165.469 152.422 165.922 150.266 166.828 148.359C167.734 146.453 169.039 144.945 170.742 143.836C172.445 142.727 174.477 142.172 176.836 142.172C178.883 142.172 180.672 142.508 182.203 143.18C183.75 143.852 185.047 144.773 186.094 145.945L186.211 152.039H182.602L181.805 147.609C181.273 147.062 180.609 146.625 179.812 146.297C179.016 145.969 178.078 145.805 177 145.805C175.625 145.805 174.414 146.211 173.367 147.023C172.336 147.836 171.531 148.922 170.953 150.281C170.375 151.641 170.086 153.156 170.086 154.828V155.812C170.086 158.594 170.688 160.805 171.891 162.445C173.094 164.07 174.734 164.883 176.812 164.883C178.375 164.883 179.672 164.453 180.703 163.594C181.734 162.734 182.367 161.555 182.602 160.055H186.75L186.797 160.195C186.719 161.648 186.289 163.008 185.508 164.273C184.727 165.539 183.609 166.562 182.156 167.344C180.719 168.109 178.945 168.492 176.836 168.492Z" fill="white"/>
<path d="M190.242 168V165.047L194.062 164.391V146.273L190.242 145.617V142.641H198.68V164.391L202.5 165.047V168H190.242ZM193.828 136.383V131.438H198.68V136.383H193.828Z" fill="white"/>
<path d="M213.891 168.492C211.25 168.492 209.242 167.852 207.867 166.57C206.492 165.273 205.805 163.453 205.805 161.109C205.805 158.703 206.789 156.773 208.758 155.32C210.727 153.852 213.461 153.117 216.961 153.117H221.484V150.633C221.484 149.102 221.016 147.914 220.078 147.07C219.156 146.227 217.852 145.805 216.164 145.805C215.102 145.805 214.18 145.938 213.398 146.203C212.617 146.453 211.906 146.805 211.266 147.258L210.773 150.797H207.211V144.984C209.508 143.109 212.516 142.172 216.234 142.172C219.312 142.172 221.727 142.906 223.477 144.375C225.227 145.844 226.102 147.945 226.102 150.68V162.891C226.102 163.219 226.102 163.539 226.102 163.852C226.117 164.164 226.141 164.477 226.172 164.789L228.633 165.047V168H222C221.734 166.719 221.57 165.555 221.508 164.508C220.617 165.648 219.5 166.602 218.156 167.367C216.828 168.117 215.406 168.492 213.891 168.492ZM214.57 164.625C216.102 164.625 217.5 164.258 218.766 163.523C220.031 162.789 220.938 161.906 221.484 160.875V156.281H216.797C214.672 156.281 213.078 156.789 212.016 157.805C210.953 158.82 210.422 159.953 210.422 161.203C210.422 163.484 211.805 164.625 214.57 164.625Z" fill="white"/>
<path d="M232.219 168V165.047L236.039 164.391V146.273L232.219 145.617V142.641H240.188L240.492 145.945C241.305 144.742 242.352 143.812 243.633 143.156C244.914 142.5 246.398 142.172 248.086 142.172C249.773 142.172 251.219 142.562 252.422 143.344C253.641 144.125 254.555 145.297 255.164 146.859C255.961 145.422 257.016 144.281 258.328 143.438C259.641 142.594 261.172 142.172 262.922 142.172C265.516 142.172 267.562 143.062 269.062 144.844C270.562 146.609 271.312 149.273 271.312 152.836V164.391L275.133 165.047V168H262.852V165.047L266.672 164.391V152.789C266.672 150.289 266.242 148.523 265.383 147.492C264.523 146.445 263.25 145.922 261.562 145.922C259.953 145.922 258.656 146.492 257.672 147.633C256.703 148.758 256.141 150.18 255.984 151.898V164.391L259.805 165.047V168H247.547V165.047L251.367 164.391V152.789C251.367 150.414 250.922 148.68 250.031 147.586C249.156 146.477 247.883 145.922 246.211 145.922C244.805 145.922 243.648 146.211 242.742 146.789C241.836 147.367 241.141 148.18 240.656 149.227V164.391L244.477 165.047V168H232.219Z" fill="white"/>
<path d="M289.758 168.492C287.414 168.492 285.375 167.961 283.641 166.898C281.906 165.82 280.562 164.328 279.609 162.422C278.672 160.516 278.203 158.312 278.203 155.812V154.781C278.203 152.375 278.695 150.227 279.68 148.336C280.68 146.43 282 144.93 283.641 143.836C285.297 142.727 287.102 142.172 289.055 142.172C292.461 142.172 295.039 143.203 296.789 145.266C298.555 147.328 299.438 150.078 299.438 153.516V156.398H282.984L282.914 156.516C282.961 158.953 283.578 160.961 284.766 162.539C285.953 164.102 287.617 164.883 289.758 164.883C291.32 164.883 292.688 164.664 293.859 164.227C295.047 163.773 296.07 163.156 296.93 162.375L298.734 165.375C297.828 166.25 296.625 166.992 295.125 167.602C293.641 168.195 291.852 168.492 289.758 168.492ZM283.125 152.789H294.82V152.18C294.82 150.367 294.336 148.852 293.367 147.633C292.398 146.414 290.961 145.805 289.055 145.805C287.508 145.805 286.188 146.461 285.094 147.773C284 149.07 283.328 150.703 283.078 152.672L283.125 152.789Z" fill="white"/>
<path d="M303.047 168V165.047L306.867 164.391V146.273L303.047 145.617V142.641H310.992L311.32 146.414C312.164 145.07 313.219 144.031 314.484 143.297C315.766 142.547 317.219 142.172 318.844 142.172C321.578 142.172 323.695 142.977 325.195 144.586C326.695 146.18 327.445 148.648 327.445 151.992V164.391L331.266 165.047V168H319.008V165.047L322.828 164.391V152.086C322.828 149.852 322.383 148.266 321.492 147.328C320.617 146.391 319.273 145.922 317.461 145.922C316.133 145.922 314.953 146.242 313.922 146.883C312.906 147.523 312.094 148.398 311.484 149.508V164.391L315.305 165.047V168H303.047Z" fill="white"/>
<path d="M342.562 168.398C340.688 168.398 339.195 167.852 338.086 166.758C336.992 165.648 336.445 163.883 336.445 161.461V146.062H332.438V142.641H336.445V136.523H341.062V142.641H346.57V146.062H341.062V161.461C341.062 162.68 341.305 163.578 341.789 164.156C342.273 164.734 342.922 165.023 343.734 165.023C344.281 165.023 344.891 164.977 345.562 164.883C346.234 164.773 346.758 164.68 347.133 164.602L347.766 167.625C347.094 167.828 346.266 168.008 345.281 168.164C344.312 168.32 343.406 168.398 342.562 168.398Z" fill="white"/>
<path d="M361.711 168.492C359.367 168.492 357.344 167.945 355.641 166.852C353.953 165.742 352.648 164.219 351.727 162.281C350.805 160.328 350.344 158.102 350.344 155.602V155.086C350.344 152.586 350.805 150.367 351.727 148.43C352.648 146.477 353.953 144.945 355.641 143.836C357.344 142.727 359.352 142.172 361.664 142.172C364.008 142.172 366.023 142.727 367.711 143.836C369.414 144.945 370.727 146.469 371.648 148.406C372.57 150.344 373.031 152.57 373.031 155.086V155.602C373.031 158.117 372.57 160.352 371.648 162.305C370.727 164.242 369.422 165.758 367.734 166.852C366.047 167.945 364.039 168.492 361.711 168.492ZM361.711 164.883C363.898 164.883 365.562 164.008 366.703 162.258C367.844 160.508 368.414 158.289 368.414 155.602V155.086C368.414 153.305 368.156 151.719 367.641 150.328C367.141 148.922 366.391 147.82 365.391 147.023C364.391 146.211 363.148 145.805 361.664 145.805C360.195 145.805 358.961 146.211 357.961 147.023C356.961 147.82 356.211 148.922 355.711 150.328C355.211 151.719 354.961 153.305 354.961 155.086V155.602C354.961 158.289 355.523 160.508 356.648 162.258C357.789 164.008 359.477 164.883 361.711 164.883Z" fill="white"/>
<path d="M10.7344 209.492C8.67188 209.492 6.89844 208.984 5.41406 207.969C3.94531 206.938 2.82031 205.508 2.03906 203.68C1.25781 201.852 0.867188 199.719 0.867188 197.281V196.789C0.867188 194.07 1.25781 191.688 2.03906 189.641C2.82031 187.594 3.95312 186.008 5.4375 184.883C6.92188 183.742 8.70312 183.172 10.7812 183.172C12.2812 183.172 13.6016 183.453 14.7422 184.016C15.8984 184.562 16.8828 185.359 17.6953 186.406V176.07L13.875 175.414V172.438H22.3125V205.391L26.1328 206.047V209H18.3047L17.9297 205.977C16.2422 208.32 13.8438 209.492 10.7344 209.492ZM11.9062 205.742C13.2812 205.742 14.4375 205.43 15.375 204.805C16.3125 204.18 17.0859 203.297 17.6953 202.156V190.391C17.1016 189.328 16.3281 188.484 15.375 187.859C14.4219 187.234 13.2812 186.922 11.9531 186.922C9.75 186.922 8.11719 187.836 7.05469 189.664C6.00781 191.492 5.48438 193.867 5.48438 196.789V197.281C5.48438 199.828 6.00781 201.875 7.05469 203.422C8.10156 204.969 9.71875 205.742 11.9062 205.742Z" fill="white"/>
<path d="M40.6406 209.492C38.2969 209.492 36.2734 208.945 34.5703 207.852C32.8828 206.742 31.5781 205.219 30.6562 203.281C29.7344 201.328 29.2734 199.102 29.2734 196.602V196.086C29.2734 193.586 29.7344 191.367 30.6562 189.43C31.5781 187.477 32.8828 185.945 34.5703 184.836C36.2734 183.727 38.2812 183.172 40.5938 183.172C42.9375 183.172 44.9531 183.727 46.6406 184.836C48.3438 185.945 49.6562 187.469 50.5781 189.406C51.5 191.344 51.9609 193.57 51.9609 196.086V196.602C51.9609 199.117 51.5 201.352 50.5781 203.305C49.6562 205.242 48.3516 206.758 46.6641 207.852C44.9766 208.945 42.9688 209.492 40.6406 209.492ZM40.6406 205.883C42.8281 205.883 44.4922 205.008 45.6328 203.258C46.7734 201.508 47.3438 199.289 47.3438 196.602V196.086C47.3438 194.305 47.0859 192.719 46.5703 191.328C46.0703 189.922 45.3203 188.82 44.3203 188.023C43.3203 187.211 42.0781 186.805 40.5938 186.805C39.125 186.805 37.8906 187.211 36.8906 188.023C35.8906 188.82 35.1406 189.922 34.6406 191.328C34.1406 192.719 33.8906 194.305 33.8906 196.086V196.602C33.8906 199.289 34.4531 201.508 35.5781 203.258C36.7188 205.008 38.4062 205.883 40.6406 205.883Z" fill="white"/>
<path d="M67.9453 209V206.047L71.7656 205.391V178.508L67.9453 177.852V174.875H77.9297L88.9219 200.773H89.0625L99.7031 174.875H109.992V177.852L106.172 178.508V205.391L109.992 206.047V209H97.7344V206.047L101.766 205.391V181.18L101.648 181.156L90.5625 207.781H87.4922L76.0312 181.203L75.9141 181.227L76.0781 195.5V205.391L80.2031 206.047V209H67.9453Z" fill="white"/>
<path d="M125.484 209.492C123.141 209.492 121.102 208.961 119.367 207.898C117.633 206.82 116.289 205.328 115.336 203.422C114.398 201.516 113.93 199.312 113.93 196.812V195.781C113.93 193.375 114.422 191.227 115.406 189.336C116.406 187.43 117.727 185.93 119.367 184.836C121.023 183.727 122.828 183.172 124.781 183.172C128.188 183.172 130.766 184.203 132.516 186.266C134.281 188.328 135.164 191.078 135.164 194.516V197.398H118.711L118.641 197.516C118.688 199.953 119.305 201.961 120.492 203.539C121.68 205.102 123.344 205.883 125.484 205.883C127.047 205.883 128.414 205.664 129.586 205.227C130.773 204.773 131.797 204.156 132.656 203.375L134.461 206.375C133.555 207.25 132.352 207.992 130.852 208.602C129.367 209.195 127.578 209.492 125.484 209.492ZM118.852 193.789H130.547V193.18C130.547 191.367 130.062 189.852 129.094 188.633C128.125 187.414 126.688 186.805 124.781 186.805C123.234 186.805 121.914 187.461 120.82 188.773C119.727 190.07 119.055 191.703 118.805 193.672L118.852 193.789Z" fill="white"/>
<path d="M138.609 209V206.047L142.43 205.391V187.273L138.609 186.617V183.641H147.047V205.391L150.867 206.047V209H138.609ZM142.195 177.383V172.438H147.047V177.383H142.195Z" fill="white"/>
<path d="M165.516 209.492C163.172 209.492 161.148 208.945 159.445 207.852C157.758 206.742 156.453 205.219 155.531 203.281C154.609 201.328 154.148 199.102 154.148 196.602V196.086C154.148 193.586 154.609 191.367 155.531 189.43C156.453 187.477 157.758 185.945 159.445 184.836C161.148 183.727 163.156 183.172 165.469 183.172C167.812 183.172 169.828 183.727 171.516 184.836C173.219 185.945 174.531 187.469 175.453 189.406C176.375 191.344 176.836 193.57 176.836 196.086V196.602C176.836 199.117 176.375 201.352 175.453 203.305C174.531 205.242 173.227 206.758 171.539 207.852C169.852 208.945 167.844 209.492 165.516 209.492ZM165.516 205.883C167.703 205.883 169.367 205.008 170.508 203.258C171.648 201.508 172.219 199.289 172.219 196.602V196.086C172.219 194.305 171.961 192.719 171.445 191.328C170.945 189.922 170.195 188.82 169.195 188.023C168.195 187.211 166.953 186.805 165.469 186.805C164 186.805 162.766 187.211 161.766 188.023C160.766 188.82 160.016 189.922 159.516 191.328C159.016 192.719 158.766 194.305 158.766 196.086V196.602C158.766 199.289 159.328 201.508 160.453 203.258C161.594 205.008 163.281 205.883 165.516 205.883Z" fill="white"/>
<path d="M192.258 209V206.047L194.789 205.695L206.719 174.875H210.68L222.398 205.695L224.906 206.047V209H215.109V206.047L217.688 205.602L215.438 199.32H201.773L199.453 205.602L202.031 206.047V209H192.258ZM203.203 195.453H214.031L209.016 181.578L208.734 180.805H208.594L208.312 181.578L203.203 195.453Z" fill="white"/>
<path d="M228.305 209V206.047L232.125 205.391V187.273L228.305 186.617V183.641H236.273L236.578 186.945C237.391 185.742 238.438 184.812 239.719 184.156C241 183.5 242.484 183.172 244.172 183.172C245.859 183.172 247.305 183.562 248.508 184.344C249.727 185.125 250.641 186.297 251.25 187.859C252.047 186.422 253.102 185.281 254.414 184.438C255.727 183.594 257.258 183.172 259.008 183.172C261.602 183.172 263.648 184.062 265.148 185.844C266.648 187.609 267.398 190.273 267.398 193.836V205.391L271.219 206.047V209H258.938V206.047L262.758 205.391V193.789C262.758 191.289 262.328 189.523 261.469 188.492C260.609 187.445 259.336 186.922 257.648 186.922C256.039 186.922 254.742 187.492 253.758 188.633C252.789 189.758 252.227 191.18 252.07 192.898V205.391L255.891 206.047V209H243.633V206.047L247.453 205.391V193.789C247.453 191.414 247.008 189.68 246.117 188.586C245.242 187.477 243.969 186.922 242.297 186.922C240.891 186.922 239.734 187.211 238.828 187.789C237.922 188.367 237.227 189.18 236.742 190.227V205.391L240.562 206.047V209H228.305Z" fill="white"/>
<path d="M288.141 209.492C284.875 209.492 282.422 208.242 280.781 205.742L280.359 209H276.375V176.07L272.555 175.414V172.438H280.992V186.641C281.789 185.516 282.773 184.656 283.945 184.062C285.133 183.469 286.516 183.172 288.094 183.172C290.188 183.172 291.969 183.742 293.438 184.883C294.922 186.008 296.055 187.594 296.836 189.641C297.633 191.688 298.031 194.07 298.031 196.789V197.281C298.031 199.719 297.633 201.852 296.836 203.68C296.055 205.508 294.922 206.938 293.438 207.969C291.969 208.984 290.203 209.492 288.141 209.492ZM286.969 205.742C289.141 205.742 290.75 204.969 291.797 203.422C292.859 201.875 293.391 199.828 293.391 197.281V196.789C293.391 193.867 292.859 191.492 291.797 189.664C290.734 187.836 289.109 186.922 286.922 186.922C285.5 186.922 284.297 187.266 283.312 187.953C282.344 188.641 281.57 189.562 280.992 190.719V201.922C281.57 203.094 282.352 204.023 283.336 204.711C284.336 205.398 285.547 205.742 286.969 205.742Z" fill="white"/>
<path d="M301.359 209V206.047L305.18 205.391V187.273L301.359 186.617V183.641H309.797V205.391L313.617 206.047V209H301.359ZM304.945 177.383V172.438H309.797V177.383H304.945Z" fill="white"/>
<path d="M328.359 209.492C326.016 209.492 323.977 208.961 322.242 207.898C320.508 206.82 319.164 205.328 318.211 203.422C317.273 201.516 316.805 199.312 316.805 196.812V195.781C316.805 193.375 317.297 191.227 318.281 189.336C319.281 187.43 320.602 185.93 322.242 184.836C323.898 183.727 325.703 183.172 327.656 183.172C331.062 183.172 333.641 184.203 335.391 186.266C337.156 188.328 338.039 191.078 338.039 194.516V197.398H321.586L321.516 197.516C321.562 199.953 322.18 201.961 323.367 203.539C324.555 205.102 326.219 205.883 328.359 205.883C329.922 205.883 331.289 205.664 332.461 205.227C333.648 204.773 334.672 204.156 335.531 203.375L337.336 206.375C336.43 207.25 335.227 207.992 333.727 208.602C332.242 209.195 330.453 209.492 328.359 209.492ZM321.727 193.789H333.422V193.18C333.422 191.367 332.938 189.852 331.969 188.633C331 187.414 329.562 186.805 327.656 186.805C326.109 186.805 324.789 187.461 323.695 188.773C322.602 190.07 321.93 191.703 321.68 193.672L321.727 193.789Z" fill="white"/>
<path d="M341.648 209V206.047L345.469 205.391V187.273L341.648 186.617V183.641H349.594L349.922 187.414C350.766 186.07 351.82 185.031 353.086 184.297C354.367 183.547 355.82 183.172 357.445 183.172C360.18 183.172 362.297 183.977 363.797 185.586C365.297 187.18 366.047 189.648 366.047 192.992V205.391L369.867 206.047V209H357.609V206.047L361.43 205.391V193.086C361.43 190.852 360.984 189.266 360.094 188.328C359.219 187.391 357.875 186.922 356.062 186.922C354.734 186.922 353.555 187.242 352.523 187.883C351.508 188.523 350.695 189.398 350.086 190.508V205.391L353.906 206.047V209H341.648Z" fill="white"/>
<path d="M381.164 209.398C379.289 209.398 377.797 208.852 376.688 207.758C375.594 206.648 375.047 204.883 375.047 202.461V187.062H371.039V183.641H375.047V177.523H379.664V183.641H385.172V187.062H379.664V202.461C379.664 203.68 379.906 204.578 380.391 205.156C380.875 205.734 381.523 206.023 382.336 206.023C382.883 206.023 383.492 205.977 384.164 205.883C384.836 205.773 385.359 205.68 385.734 205.602L386.367 208.625C385.695 208.828 384.867 209.008 383.883 209.164C382.914 209.32 382.008 209.398 381.164 209.398Z" fill="white"/>
<path d="M400.406 209.492C398.062 209.492 396.023 208.961 394.289 207.898C392.555 206.82 391.211 205.328 390.258 203.422C389.32 201.516 388.852 199.312 388.852 196.812V195.781C388.852 193.375 389.344 191.227 390.328 189.336C391.328 187.43 392.648 185.93 394.289 184.836C395.945 183.727 397.75 183.172 399.703 183.172C403.109 183.172 405.688 184.203 407.438 186.266C409.203 188.328 410.086 191.078 410.086 194.516V197.398H393.633L393.562 197.516C393.609 199.953 394.227 201.961 395.414 203.539C396.602 205.102 398.266 205.883 400.406 205.883C401.969 205.883 403.336 205.664 404.508 205.227C405.695 204.773 406.719 204.156 407.578 203.375L409.383 206.375C408.477 207.25 407.273 207.992 405.773 208.602C404.289 209.195 402.5 209.492 400.406 209.492ZM393.773 193.789H405.469V193.18C405.469 191.367 404.984 189.852 404.016 188.633C403.047 187.414 401.609 186.805 399.703 186.805C398.156 186.805 396.836 187.461 395.742 188.773C394.648 190.07 393.977 191.703 393.727 193.672L393.773 193.789Z" fill="white"/>
</svg>
