<svg width="314" height="71" viewBox="0 0 314 71" fill="none" xmlns="http://www.w3.org/2000/svg">
<path d="M26.4688 70.9844C21.4375 70.9844 16.8594 70.4219 12.7344 69.2969C8.60938 68.1719 4.54688 66.2188 0.546875 63.4375V46.9375H11.1406L12.5938 56.6406C13.9688 57.8281 15.8906 58.7969 18.3594 59.5469C20.8594 60.2656 23.5625 60.625 26.4688 60.625C30.1875 60.625 33.0312 59.875 35 58.375C36.9688 56.8438 37.9531 54.7812 37.9531 52.1875C37.9531 49.75 37.0156 47.7031 35.1406 46.0469C33.2969 44.3594 30.0469 42.7969 25.3906 41.3594C17.2969 39.0156 11.2656 36.2344 7.29688 33.0156C3.32812 29.7969 1.34375 25.3906 1.34375 19.7969C1.34375 16.1094 2.35938 12.8594 4.39062 10.0469C6.45312 7.20312 9.29688 4.96875 12.9219 3.34375C16.5469 1.71875 20.7344 0.875 25.4844 0.8125C30.7344 0.75 35.375 1.375 39.4062 2.6875C43.4688 4 46.9688 5.82812 49.9062 8.17188V23.5469H39.6406L37.8594 14.1719C36.6719 13.4219 35.0625 12.7656 33.0312 12.2031C31.0312 11.6406 28.75 11.3594 26.1875 11.3594C22.9062 11.3594 20.2188 12.0938 18.125 13.5625C16.0312 15.0312 14.9844 17.0938 14.9844 19.75C14.9844 22.0312 15.9531 23.9375 17.8906 25.4688C19.8594 26.9688 23.4688 28.5625 28.7188 30.25C36.25 32.3438 41.9531 35.1094 45.8281 38.5469C49.7344 41.9844 51.6875 46.5 51.6875 52.0938C51.6875 56 50.6406 59.3594 48.5469 62.1719C46.4531 64.9844 43.5 67.1562 39.6875 68.6875C35.9062 70.2188 31.5 70.9844 26.4688 70.9844Z" fill="white"/>
<path d="M57.125 70V61.7969L64.3906 60.3906V11.4062L57.125 10V1.75H85.3438V10L78.0781 11.4062V60.3906L85.3438 61.7969V70H57.125Z" fill="white"/>
<path d="M122.328 70.9844C115.547 70.9844 109.766 69.5781 104.984 66.7656C100.203 63.9531 96.5312 60.0469 93.9688 55.0469C91.4375 50.0469 90.1719 44.25 90.1719 37.6562V35.3125C90.1719 28.5 91.4375 22.5 93.9688 17.3125C96.5 12.125 100.078 8.07812 104.703 5.17188C109.359 2.23438 114.859 0.765625 121.203 0.765625C126.078 0.765625 130.672 1.4375 134.984 2.78125C139.328 4.125 143.094 6.14062 146.281 8.82812V23.9688H136.156L134.234 14.8281C132.984 13.7656 131.328 12.9219 129.266 12.2969C127.234 11.6406 124.891 11.3125 122.234 11.3125C118.391 11.3125 115.094 12.3125 112.344 14.3125C109.594 16.3125 107.484 19.1094 106.016 22.7031C104.547 26.2969 103.812 30.4688 103.812 35.2188V37.6562C103.812 44.5938 105.438 50.1406 108.688 54.2969C111.938 58.4219 116.625 60.4844 122.75 60.4844C125.156 60.4844 127.359 60.25 129.359 59.7812C131.391 59.3125 133.062 58.7656 134.375 58.1406V46.5625L124.625 45.8125V36.2031H148.109V63.8125C145.078 65.9688 141.422 67.7031 137.141 69.0156C132.859 70.3281 127.922 70.9844 122.328 70.9844Z" fill="white"/>
<path d="M155 70V61.7969L162.266 60.3906V11.4062L155 10V1.75H182.516L201.125 49.3281H201.406L219.406 1.75H246.969V10L239.656 11.4062V60.3906L246.969 61.7969V70H218.703V61.7969L226.344 60.3906V47.3125L226.578 16.5156L226.297 16.4688L205.906 69.0625H195.547L174.688 16.8906L174.406 16.9375L175.203 45.9062V60.3906L183.266 61.7969V70H155Z" fill="white"/>
<path d="M246.641 70V61.7969L251.516 61.0938L273.219 1.75H287.234L308.797 61.0938L313.672 61.7969V70H290.422V61.7969L295.156 60.9531L292.156 51.5781H268.156L265.156 60.9531L269.891 61.7969V70H246.641ZM271.391 41.5H288.922L280.953 18.1094L280.297 16.0469H280.016L279.312 18.25L271.391 41.5Z" fill="white"/>
</svg>
